<svg width="100" height="100" viewBox="0 0 100 100" fill="none" xmlns="http://www.w3.org/2000/svg">
<g clip-path="url(#clip0_41_87)">
<rect width="100" height="100" fill="#95A5A6"/>
<rect width="100" height="100" rx="10" fill="white"/>
<path d="M63.1629 78.1193C60.4206 78.1193 58.3394 77.2378 56.9193 75.4749C55.5481 73.663 54.6177 70.3086 54.128 65.4116C53.8342 62.8652 53.5404 59.5598 53.2465 55.4953C49.8187 56.5236 46.3663 57.601 42.8895 58.7273L40.392 65.632C39.9023 66.9542 39.5595 67.9091 39.3636 68.4967C39.1678 69.0354 38.8005 69.8679 38.2618 70.9942C37.7721 72.1205 37.3314 72.953 36.9396 73.4916C36.5969 73.9813 36.0827 74.6179 35.3971 75.4015C34.7605 76.185 34.0994 76.7481 33.4138 77.0909C31.6509 77.9724 29.7656 78.4131 27.7578 78.4131C25.7501 78.4131 24.1096 77.703 22.8364 76.2829C21.6121 74.8138 21 73.0264 21 70.9207C21 70.3331 21.049 69.721 21.1469 69.0844C21.7835 64.3833 26.607 60.0984 35.6175 56.2298C38.1639 49.7168 42.3998 38.7476 48.3251 23.3222C49.8921 22.4407 51.8754 22 54.2749 22C54.8136 22 55.3278 22 55.8175 22C56.3072 22 56.8948 22 57.5804 22C58.3149 22 59.2208 22.1469 60.2982 22.4407C60.3472 24.7423 61.4735 39.017 63.6771 65.2647C63.873 67.4684 64.1423 68.913 64.4851 69.5985C64.8279 70.2352 65.4155 70.5535 66.248 70.5535C67.6192 70.5535 69.431 69.623 71.6836 67.7622C73.9852 65.9013 76.0419 63.5753 77.8538 60.784L79.9105 65.7789L78.1476 68.1295C73.0058 74.7893 68.0109 78.1193 63.1629 78.1193ZM51.4836 34.7811L45.0931 52.6305C48.521 51.4553 51.0674 50.5983 52.7324 50.0596L51.4836 34.7811ZM33.0465 62.6204C28.4924 64.9219 26.2153 67.1745 26.2153 69.3782C26.2153 70.9452 26.8029 71.7287 27.9782 71.7287C28.8596 71.7287 29.5697 71.0921 30.1084 69.8189C30.745 68.4478 31.7244 66.0482 33.0465 62.6204Z" fill="#40407A"/>
</g>
<defs>
<clipPath id="clip0_41_87">
<rect width="100" height="100" fill="white"/>
</clipPath>
</defs>
</svg>
