<svg width="100" height="100" viewBox="0 0 100 100" fill="none" xmlns="http://www.w3.org/2000/svg">
<g clip-path="url(#clip0_41_95)">
<rect width="100" height="100" fill="#95A5A6"/>
<path d="M45.0931 52.6305L51.4836 34.7811L52.7324 50.0596C51.0674 50.5983 48.521 51.4553 45.0931 52.6305Z" fill="white"/>
<path d="M26.2153 69.3782C26.2153 67.1745 28.4924 64.9219 33.0465 62.6204C31.7244 66.0482 30.745 68.4478 30.1084 69.8189C29.5697 71.0921 28.8596 71.7287 27.9782 71.7287C26.8029 71.7287 26.2153 70.9452 26.2153 69.3782Z" fill="white"/>
<path fill-rule="evenodd" clip-rule="evenodd" d="M10 0C4.47715 0 0 4.47716 0 10V90C0 95.5229 4.47716 100 10 100H90C95.5229 100 100 95.5228 100 90V10C100 4.47715 95.5228 0 90 0H10ZM56.9193 75.4749C58.3394 77.2378 60.4206 78.1193 63.1629 78.1193C68.0109 78.1193 73.0058 74.7893 78.1476 68.1295L79.9105 65.7789L77.8538 60.784C76.0419 63.5753 73.9852 65.9013 71.6836 67.7622C69.431 69.623 67.6192 70.5535 66.248 70.5535C65.4155 70.5535 64.8279 70.2352 64.4851 69.5985C64.1423 68.913 63.873 67.4684 63.6771 65.2647C61.4735 39.017 60.3472 24.7423 60.2982 22.4407C59.2208 22.1469 58.3149 22 57.5804 22H54.2749C51.8754 22 49.8921 22.4407 48.3251 23.3222C42.3998 38.7476 38.1639 49.7169 35.6175 56.2298C26.607 60.0984 21.7835 64.3833 21.1469 69.0844C21.049 69.721 21 70.3331 21 70.9207C21 73.0264 21.6121 74.8138 22.8364 76.2829C24.1096 77.703 25.7501 78.4131 27.7578 78.4131C29.7656 78.4131 31.6509 77.9724 33.4138 77.0909C34.0994 76.7481 34.7605 76.185 35.3971 75.4015C36.0827 74.6179 36.5969 73.9813 36.9396 73.4916C37.3314 72.953 37.7721 72.1205 38.2618 70.9942C38.8005 69.8679 39.1678 69.0354 39.3636 68.4967C39.5595 67.9091 39.9023 66.9542 40.392 65.632L42.8895 58.7273C46.3663 57.601 49.8187 56.5236 53.2465 55.4953C53.5404 59.5598 53.8342 62.8652 54.128 65.4116C54.6177 70.3086 55.5481 73.663 56.9193 75.4749Z" fill="white"/>
</g>
<defs>
<clipPath id="clip0_41_95">
<rect width="100" height="100" fill="white"/>
</clipPath>
</defs>
</svg>
